<?xml version="1.0" encoding="UTF-8" standalone="no"?>
<svg
   xmlns:dc="http://purl.org/dc/elements/1.1/"
   xmlns:cc="http://creativecommons.org/ns#"
   xmlns:rdf="http://www.w3.org/1999/02/22-rdf-syntax-ns#"
   xmlns:svg="http://www.w3.org/2000/svg"
   xmlns="http://www.w3.org/2000/svg"
   xml:space="preserve"
   enable-background="new 0 0 1494.686 1645.837"
   viewBox="0 0 1494.686 1645.837"
   y="0px"
   x="0px"
   id="Layer_1"
   version="1.1"><metadata
   id="metadata36"><rdf:RDF><cc:Work
       rdf:about=""><dc:format>image/svg+xml</dc:format><dc:type
         rdf:resource="http://purl.org/dc/dcmitype/StillImage" /><dc:title></dc:title></cc:Work></rdf:RDF></metadata><defs
   id="defs34" />
<g
   id="Man_Head_Silhouette">
	
		
	<g
   id="g28">
		<g
   id="path19449_1_">
			<path
   id="path15"
   d="M442.952,121.834     c0.488,0.845,39.411-25.553,40.623-23.454c1.004,1.739-81.154,52.235-81.152,52.238c3.358,5.815,128.455-78.63,130.389-75.28     c3.489,6.044-158.301,85.418-153.354,93.987c4.357,7.546,182.117-117.663,187.537-108.275     c7.262,12.578-218.524,116.224-211.666,128.102c5.445,9.431,233.973-136.144,234.432-135.349     c3.648,6.318-242.819,145.333-242.735,145.478c1.676,2.903,257.304-149.885,257.88-148.887     c4.783,8.284-267.031,149.789-262.729,157.24c1.822,3.156,268.37-163.211,271.95-157.011     c0.408,0.706-286.939,169.803-286.319,170.877C332.2,229.109,639.595,41.49,639.595,41.49     c2.962,5.13-328.459,179.395-321.326,191.75c0,0,335.11-196.145,336.266-194.143c10.356,17.937-354.719,183.93-343.218,203.851     c0.636,1.101,338.074-223.378,350.281-202.235L304.106,252.707c9.646,16.708,380.252-224.804,382.532-220.855     c9.628,16.677-405.969,217.57-396.069,234.717c0,0,392.232-236.293,396.491-228.914c0.508,0.881-402.368,236.304-401.497,237.813     c1.916,3.319,411.571-258.334,420.54-242.799c5.826,10.09-429.002,253.072-429.002,253.072     c2.091,3.621,429.965-260.12,435.109-251.21c1.499,2.596-431.345,251.724-430.115,253.855c0,0,443.27-284.128,455.484-262.974     c3.588,6.214-466.298,271.609-464.664,274.438c0.257,0.445,449.186-292.676,463.622-267.673     c0.378,0.655-479.578,271.139-474.82,279.381c0,0,487.838-284.928,489.256-282.472c7.659,13.266-486.498,286.831-486.498,286.831     c3.47,6.01,498.507-298.981,503.343-290.605C781.217,48.517,259.375,324.5,259.375,324.5     C270.917,344.492,776.318,21.096,778.46,24.806c8.91,15.432-534.153,300.262-528.328,310.351     c18.239,31.59,517.042-332.633,531.816-307.044c0,0-535.305,298.213-528.16,310.589     C265.918,359.71,784.222,26.653,786.735,31.005c0,0-543.221,311.701-540.063,317.172     c9.632,16.684,556.615-329.19,560.005-323.319L252.995,350.249C266.333,373.35,795.377-6.509,814.262,26.202     c0,0-579.639,313.885-568.084,333.898c19.21,33.273,564.591-344.423,572.583-330.581     c13.763,23.839-576.814,332.765-574.168,337.35c11.953,20.703,576.303-371.46,593.074-342.411     c3.206,5.554-596.39,344.318-593.663,349.042C262.123,404.881,823.997,8.142,837.203,31.016     c13.213,22.886-607.08,355.942-607.08,355.942C241.502,406.666,851.58,28.16,851.58,28.16     c2.811,4.869-626.471,343.162-615.724,361.777c4.456,7.719,609.97-370.555,617.933-356.764     c17.482,30.28-622.062,362.111-620.784,364.325C251.464,429.47,842.326-3.446,863.609,33.418     c14.385,24.915-645.759,357.39-636.835,372.846c4.904,8.494,634.008-408.428,652.361-376.641     c12.194,21.12-648.966,373.083-645.636,378.851C249.296,435.837,877.23,15.582,886.424,31.507c0,0-680.596,348.6-658.795,386.36     c9.007,15.6,662.242-382.345,662.242-382.345C900.5,53.932,209.725,387.115,229.812,421.908     c0.207,0.358,674.972-389.849,675.039-389.734c5.865,10.158-698.326,361.34-677.597,397.244     c22.71,39.335,676.482-410.334,685.042-395.509c19.989,34.623-696.999,387.053-687.956,402.717     c0,0,679.25-445.303,702.259-405.45c15.763,27.302-723.385,403.181-714.472,418.619C226.802,475.21,910.21,19.267,922.113,39.885     c11.172,19.351-706.154,413.214-705.855,413.732C235.799,487.463,920.53,10.668,936.264,37.921     c16.854,29.192-723.51,399.75-713.222,417.569c17.523,30.351,730.264-421.618,730.264-421.618     c22.089,38.259-737.773,419.513-732.355,428.896c7.971,13.807,728.852-421.55,729.176-420.99     c3.248,5.626-754.377,387.89-731.116,428.18c24.726,42.827,731.831-448.918,743.26-429.122     c18.023,31.216-744.579,429.577-741.714,434.539c16.221,28.095,740.435-452.457,751.246-433.732     c20.083,34.785-777.177,411.623-758.4,444.145C223.556,503.373,959.776-4.349,985.418,40.065     c21.753,37.677-797.67,422.078-778.714,454.911c22,38.106,766.609-469.964,778.457-449.442     c10.998,19.049-781.188,438.048-772.856,452.479c3.507,6.074,773.855-448.995,774.812-447.338     c5.484,9.499-791.23,433.993-778.909,455.333c16.576,28.71,769.323-503.184,794.877-458.923     c26.842,46.491-800.475,455.561-795.175,464.74c18.822,32.601,786.928-492.861,803.611-463.965     C1037.14,92.233,188.76,468.27,214.887,513.523c27.445,47.537,797.183-465.114,799.287-461.469L209.162,522.193     c18.863,32.672,781.528-507.347,805.834-465.248c0,0-794.188,457.281-791.169,462.51     c10.064,17.432,783.709-484.496,797.575-460.48c19.038,32.975-816.718,456.339-807.584,472.159     c13.235,22.924,821.834-474.486,821.834-474.486S212.835,510.523,224.601,530.904c6.852,11.868,808.637-483.037,815.639-470.909     c0,0-823.002,459.482-813.682,475.623c14.78,25.6,806.093-509.514,825.195-476.427c28.1,48.67-832.715,477.964-829.206,484.042     L1055.791,62.16c1.264,2.189-852.574,441.307-828.198,483.527c27.587,47.782,808.489-525.445,833.891-481.447     c12.974,22.471-840.821,491.071-840.821,491.071c15.241,26.398,812.245-533.467,840.182-485.079     c5.632,9.755-845.424,493.617-845.424,493.617c22.769,39.437,863.384-498.475,863.384-498.475S190.108,523.708,216.404,569.253     c11.099,19.224,840.708-526.682,858.591-495.708c14.976,25.939-883.019,480.617-867.805,506.968     c0,0,859.974-539.677,878.668-507.299c22.711,39.336-897.028,487.25-881.062,514.903c0,0,864.907-570.199,895.584-517.066     c0,0-922.984,513.062-911.936,532.198c3.014,5.221,892.566-543.464,904.751-522.358c27.067,46.881-932.278,497.852-912.21,532.61     c30.256,52.405,899.337-569.281,921.008-531.744c19.864,34.406-959.702,503.18-935.003,545.961     c0.601,1.042,937.66-541.359,937.66-541.359c5.997,10.386-951.753,538.069-944.471,550.682     c32.839,56.878,930.239-595.282,955.444-551.626c9.61,16.645-956.055,553.156-954.119,556.509     c0,0,935.299-592.379,957.982-553.091c17.814,30.855-994.327,528.861-972.298,567.017     c27.231,47.166,965.043-579.857,974.868-562.84L145.223,662.315c0,0,966.765-591.154,981.051-566.41     c19.434,33.661-1028.692,538.787-1002.294,584.51c18.864,32.674,998.988-626.36,1020.463-589.164     c19.452,33.691-1046.857,567.853-1028.4,599.822l1036.078-598.18c3.348,5.798-1065.443,554.266-1036.762,603.943     c11.02,19.086,1004.865-635.162,1028.682-593.91C1174.14,155.057,77.115,650.127,109.569,706.341     C140.785,760.408,1127.26,36.686,1162.807,98.254c7.63,13.216-1103.041,572.053-1072.564,624.841     c9.915,17.173,1048.695-641.665,1064.37-614.515c16.426,28.451-1062.2,619.296-1062.2,619.296     c22.696,39.311,1054.241-648.811,1071.624-618.702c0,0-1102.921,613.351-1090.095,635.566c0,0,1062.02-683.284,1092.385-630.689     c14.464,25.053-1099.599,641.01-1099.599,641.01c25.546,44.248,1098.844-655.33,1107.899-639.646     c0,0-1134.842,588.894-1103.57,643.06c5.835,10.106,1104.981-662.15,1115.455-644.008     C1192.897,125.526,52.61,761.69,58.382,771.688c6.392,11.071,1113.461-666.618,1123.75-648.797     C1211.389,173.565,21.117,737.818,47.736,783.924c9.599,16.625,1143.268-683.087,1153.237-665.822     C1225.526,160.629,15.507,744.16,43.212,792.147C64.363,828.782,1193.254,96.194,1207.1,120.176     C1244.35,184.695,27.171,770.859,43.005,798.283c32.375,56.076,1153.99-666.256,1153.99-666.256     C1231.607,191.978,17.772,792.41,28.877,811.644C62.37,869.657,1191.028,95.231,1210.706,129.315     C1235.102,171.57,28.996,797.119,37.667,812.138C54.462,841.228,1182.79,68.048,1218.71,130.263     C1251.802,187.581,8.499,778.828,32.657,820.67c3.388,5.868,1167.956-704.265,1180.923-681.806     C1230.715,168.543-4.272,772.63,28.043,828.601C50.855,868.114,1219.395,127.597,1225.1,137.479     C1257.215,193.104,32.207,830.03,33.057,831.502c27.514,47.655,1189.45-701.511,1195.85-690.424     C1265.629,204.682,9.976,824.947,21.023,844.08C34.5,867.423,1229.461,146.388,1229.461,146.388     C1257.691,195.285-5.695,800.373,22.61,849.399c3.826,6.627,1206.36-715.698,1214.677-701.294     c0,0-1228.929,685.494-1215.888,708.082c35.184,60.941,1201.094-754.007,1227.315-708.591     C1289.874,218.888-6.088,784.549,34.222,854.369c3.158,5.47,1205.153-725.729,1218.115-703.279     C1289.795,215.97-0.164,824.347,23.925,866.071C53.066,916.545,1251.07,148.779,1254.88,155.379     c4.717,8.171-1251.559,645.158-1215.559,707.512c5.961,10.325,1202.97-731.653,1219.043-703.815     C1299.343,230.053,4.528,802.128,42.12,867.238c19.489,33.755,1202.642-730.344,1218.23-703.345     C1267.22,175.794,39.12,874.949,39.12,874.949c36.236,62.763,1220.708-704.776,1220.708-704.776     C1298.576,237.287,3.03,811.415,42.234,879.319c40.815,70.693,1206.07-737.339,1223.83-706.578     C1284.537,204.736,38.57,843.281,57.557,876.168c39.236,67.96,1190.578-750.797,1218.038-703.235     C1310.305,233.052,48.36,886.667,48.36,886.667c24.954,43.222,1215.397-728.398,1226.953-708.382     c40.64,70.391-1218.494,694.81-1212.231,705.657c3.62,6.269,1182.548-759.796,1215.912-702.007     c0,0-1224.739,670.261-1206.071,702.595c1.178,2.04,1203.253-718.147,1213.407-700.561c0,0-1223.362,702.362-1219.128,709.695     c10.309,17.856,1178.266-763.895,1214.476-701.178c27.847,48.232-1228.72,667.925-1208.124,703.599     c0,0,1209.976-710.098,1214.963-701.459c9.225,15.979-1224.665,673.903-1207.9,702.942     c15.394,26.663,1186.39-743.482,1211.73-699.592c0,0-1216.922,680.086-1204.719,701.223     c38.609,66.873,1187.011-745.275,1212.972-700.309C1314.568,223.083,96.46,900.182,96.46,900.182     c15.188,26.306,1164.197-756.986,1200.932-693.359c23.764,41.16-1215.032,668.45-1198.023,697.911     c6.551,11.347,1177.806-752.13,1209.036-698.037c25.63,44.392-1231.645,653.845-1204.317,701.179     c3.609,6.252,1166.429-763.812,1205.562-696.032c16.874,29.226-1205.926,668.202-1191.388,693.384     c14.617,25.317,1194.104-709.484,1202.793-694.433C1344.385,251.202,127.972,902,129.293,904.288     C158.56,954.979,1305.162,183.72,1323.21,214.98c15.857,27.464-1187.821,691.927-1187.821,691.927     c24.769,42.901,1173.627-727.976,1195.443-690.19c0.447,0.773-1219.65,664.967-1200.151,698.74     c16.039,27.78,1201.502-697.099,1202.979-694.54c16.017,27.742-1202.048,663.024-1185.968,690.875     c18.472,31.995,1176.183-679.07,1176.183-679.07c19.751,34.209-1195.129,673.782-1185.652,690.196     c22.577,39.105,1187.323-695.575,1191.685-688.02C1343.546,258.521,145.55,924.026,145.55,924.026     c30.807,53.359,1173.236-704.793,1185.111-684.224c19.725,34.165-1180.443,678.896-1177.059,684.756     c28.812,49.904,1169.501-720.901,1189.285-686.634c18.454,31.963-1232.034,651.453-1203.683,700.559     c2.985,5.171,1182.142-737.313,1205.873-696.211c2.607,4.516-1211.714,663.8-1193.798,694.831     c32.147,55.68,1176.991-725.352,1196.83-690.99c0,0-1211.326,701.632-1209.679,704.486     c10.123,17.534,1211.757-699.608,1211.757-699.608c13.442,23.282-1215.381,707.608-1215.381,707.608     c33.925,58.76,1188.799-748.278,1215.613-701.834c36.072,62.479-1210.655,704.594-1210.655,704.594     c36.321,62.91,1202.886-721.02,1214.375-701.12c17.636,30.547-1235.752,682.011-1219.564,710.049     c11.802,20.441,1195.66-767.76,1229.195-709.676c23.336,40.419-1240.122,694.673-1228.523,714.763     c0,0,1233.208-715.102,1234.555-712.77C1394.313,305.059,99.77,935.284,128.667,985.334     c3.573,6.188,1229.348-709.765,1229.348-709.765c26.65,46.159-1263.442,673.661-1237.008,719.447     c23.123,40.05,1227.715-757.197,1248.662-720.915c17.953,31.096-1277.586,680.281-1250.39,727.386     c24.702,42.786,1257.678-726.121,1257.678-726.121c18.863,32.671-1303.56,670.96-1265.733,736.478     c18.115,31.375,1251.672-744.81,1261.266-728.192c0,0-1277.857,711.87-1264.181,735.558     c2.884,4.995,1242.099-781.38,1269.922-733.19c16.187,28.036-1311.484,666.094-1269.421,738.95     c17.116,29.647,1242.959-769.576,1265.455-730.611c43.529,75.394-1259.307,727.02-1256.942,731.117     c3.704,6.416,1257.635-726.096,1257.635-726.096L104.333,1038.816c37.943,65.719,1258.272-776.633,1279.996-739.006     c0,0-1285.006,720.138-1272.953,741.014c0,0,1254.935-773.559,1276.162-736.792c8.448,14.632-1318.858,667.272-1275.692,742.038     c30.288,52.46,1246.616-806.553,1284.21-741.439c24.47,42.383-1318.407,685.007-1282.818,746.647     c0.226,0.392,1243.828-795.154,1277.182-737.382c41.871,72.523-1286.571,698.77-1264.896,736.313     c10.36,17.944,1253.249-751.139,1265.189-730.457c40.667,70.437-1265.624,736.497-1265.624,736.497     c6.578,11.393,1263.99-764.172,1278.889-738.367c1.347,2.332-1306.621,672.065-1268.279,738.476     c18.971,32.858,1252.587-742.49,1260.948-728.008c13.62,23.59-1271.258,697.338-1253.108,728.775     c33.164,57.441,1238.262-749.109,1253.07-723.46c39.688,68.742-1280.055,702-1261.406,734.301     c1.766,3.059,1231.795-794.102,1267.703-731.909c0,0-1289.167,676.944-1257.745,731.369c0,0,1248.176-761.776,1265.991-730.92     C1433.495,375.2,129.028,1036.29,149.11,1071.073c38.069,65.937,1216.324-793.005,1255.624-724.935     c41.792,72.386-1287.416,665.963-1251.317,728.488c18.573,32.169,1263.595-729.537,1263.595-729.537     c34.807,60.287-1285.845,732.801-1279.155,744.389l1273.386-735.19c11.618,20.123-1286.162,746.511-1285.412,747.809     c15.169,26.273,1281.765-752.12,1287.001-743.05c14.113,24.444-1285.957,748.446-1285.957,748.446     s1274.379-762.012,1285.745-742.325L120.679,1117.345c0,0,1290.356-756.17,1295.198-747.783     c43.27,74.946-1316.76,704.304-1290.178,750.345c0,0,1252.921-809.502,1290.215-744.906     c38.052,65.908-1331.07,684.739-1292.56,751.44c15.833,27.423,1280.146-781.682,1298.588-749.74     c36.092,62.512-1313.508,708.75-1289.764,749.876c32.356,56.042,1286.996-743.047,1286.996-743.047     S116.078,1125.098,123.219,1137.467c39.642,68.662,1271.071-811.276,1304.596-753.209     c24.037,41.633-1292.633,751.584-1292.633,751.584c38.679,66.994,1290.536-746.834,1291.291-745.527     c20.247,35.07-1310.02,711.409-1288.149,749.291c32.995,57.149,1270.765-789.73,1295.037-747.69     c0,0-1306.65,752.368-1303.326,758.125c17.921,31.04,1298.233-771.631,1307.801-755.059     c31.247,54.122-1334.638,707.418-1304.711,759.253c0,0,1290.454-778.088,1304.762-753.305     c15.161,26.26-1288.075,749.637-1288.01,749.75c37.133,64.316,1292.812-746.405,1292.812-746.405     c19.352,33.519-1296.319,753.791-1296.319,753.791c29.582,51.237,1259.691-813.917,1297.205-748.942     c9.246,16.015-1303.697,734.513-1293.508,752.16c14.838,25.7,1265.472-777.891,1285.941-742.438     c19.76,34.226-1321.55,667.652-1277.756,743.506c30.134,52.194,1250.598-803.564,1285.902-742.416     c17.232,29.848-1312.586,698.171-1284.456,746.893c30.071,52.084,1257.271-768.66,1275.792-736.579     c32.474,56.246-1294.042,726.831-1282.9,746.13c16.747,29.006,1296.063-753.439,1298.296-749.572     c0,0-1306.328,733.214-1294.938,752.943c32.452,56.209,1270.474-786.294,1293.331-746.705     c8.603,14.901-1292.844,741.607-1288.223,749.609c0,0,1279.403-765.461,1291.006-745.363     c10.314,17.865-1331.754,672.242-1287.332,749.182c36.654,63.486,1271.464-752.259,1279.336-738.625     c38.782,67.172-1324.213,677.169-1284.006,746.809c20.3,35.161,1289.56-744.528,1289.56-744.528     c8.872,15.366-1322.808,693.772-1289.894,750.78c8.694,15.059,1260.899-790.148,1287.818-743.522     c43.441,75.241-1330.561,685.543-1292.098,752.162c0,0,1268.534-794.308,1295.346-747.869c0,0-1327.966,677.371-1286.968,748.382     c2.712,4.698,1247.565-805.765,1284.581-741.653c30.645,53.079-1328.262,695.852-1295.13,753.239     c21.663,37.521,1269.632-801.231,1299.167-750.074c31.239,54.108-1340.728,682.171-1298.664,755.028     c0,0,1279.174-805.781,1308.294-755.344c6.023,10.433-1347.219,696.727-1309.537,761.994     c34.976,60.581,1269.041-830.819,1311.536-757.216c25.182,43.616-1361.629,690.41-1317.637,766.606     c0,0,1305.636-754.652,1306.001-754.02c37.983,65.788-1332.87,714.621-1306.817,759.747     c22.989,39.818,1274.928-827.793,1314.641-759.008c24.683,42.751-1320.492,767.599-1320.492,767.599     c41.439,71.775,1313.62-788.14,1326.49-765.849c0.677,1.173-1327.449,747.845-1316.806,766.279     c0,0,1264.294-835.121,1309.838-756.235c22.74,39.387-1359.002,692.451-1316.454,766.147c0,0,1296.137-806.374,1321.273-762.837     c14.156,24.518-1354.374,712.661-1321.782,769.114c0,0,1296.058-816.917,1325.779-765.439     c29.534,51.155-1345.26,736.86-1325.401,771.256c35.109,60.81,1309.763-762.465,1312.479-757.76     c7.341,12.716-1366.523,692.512-1322.269,769.162c0,0,1320.407-788.276,1331.639-768.822     c17.175,29.747-1343.539,763.216-1335.862,776.511c29.223,50.615,1299.586-815.427,1327.78-766.594     c4.714,8.166-1364.676,701.297-1324.8,770.363c38.101,65.992,1287.863-845.608,1332.056-769.063     c11.848,20.521-1332.578,767.816-1329.407,773.308c21.976,38.063,1318.158-777.971,1325.49-765.272     c41.545,71.958-1349.973,720.341-1322.012,768.77c0.926,1.604,1294.562-807.978,1320.787-762.556     c23.453,40.621-1323.885,761.512-1320.304,767.714c45.956,79.598,1295.885-820.375,1327.147-766.228     c0,0-1349.731,751.71-1335.557,776.26c28.603,49.542,1337.075-771.961,1337.075-771.961     c34.058,58.99-1330.521,769.012-1328.635,772.279c42.786,74.108,1301.124-820.719,1331.225-768.583l-1331.72,774.563     c18.037,31.242,1295.117-830.687,1331.036-768.474c0,0-1367.484,724.526-1336.614,777.995     c25.99,45.017,1295.957-821.002,1327.472-766.416c24.239,41.983-1326.562,772.183-1326.562,772.183     c14.862,25.742,1320.938-804.534,1339.077-773.117c12.316,21.332-1330.985,773.882-1330.985,773.882     c34.157,59.161,1292.869-833.758,1330.679-768.268c17.565,30.423-1335.685,761.352-1329.008,772.917l1322.618-763.614     c35,60.621-1360.592,706.526-1323.891,770.094c18.435,31.93,1277.255-836.189,1320.021-762.115     c0,0-1320.002,739.225-1307.609,760.692c7.677,13.297,1267.784-828.965,1309.79-756.208     c5.848,10.129-1328.13,749.516-1317.955,767.141c37.555,65.047,1297.132-789.2,1314.582-758.974l-1306.99,759.929     c15.607,27.031,1317.227-767.505,1320.26-762.252L164.87,1368.331c28.155,48.766,1297.562-749.147,1297.562-749.147     S149.178,1338.328,168.536,1371.857c17.982,31.145,1285.149-763.917,1294.647-747.465     c26.079,45.171-1319.001,698.538-1289.284,750.009c40.241,69.7,1289.018-757.014,1294.56-747.415     c15.585,26.993-1340.895,695.768-1304.29,759.17l1299.493-750.263c16.909,29.287-1291.213,751.512-1291.213,751.512     c22.779,39.454,1277.778-786.926,1299.082-750.026c4.336,7.51-1289.057,749.771-1289.057,749.771     c25.638,44.407,1272.874-756.747,1282.337-740.358c0,0-1321.652,692.55-1288.631,749.744     c42.35,73.352,1277.142-752.608,1283.745-741.171c38.132,66.047-1298.774,694.728-1272.456,740.313     c0,0,1261.673-772.771,1280.875-739.514c18.199,31.521-1304.579,681.732-1271.023,739.852c0,0,1232.084-782.92,1263.077-729.238     c36.179,62.663-1298.987,668.064-1261.228,733.465c35.493,61.476,1234.661-794.662,1270.094-733.289     c13.451,23.297-1282.545,705.026-1264.81,735.744c4.489,7.776,1246.896-745.867,1258.142-726.389     c34.347,59.49-1255.96,708.368-1246.438,724.862c11.535,19.98,1238.326-724.693,1242.545-717.384     c0,0-1272.948,674.269-1244.313,723.867c30.46,52.759,1235.99-740.901,1247.812-720.425     c41.983,72.716-1269.844,675.654-1242.36,723.258c30.687,53.151,1234.599-712.796,1234.599-712.796     c18.172,31.475-1228.926,709.948-1226.604,713.971c38.281,66.305,1211.054-757.819,1236.436-713.857     c16.382,28.374-1271.562,658.098-1236.066,719.578c42.327,73.313,1225.498-715.468,1228.93-709.523     c0,0-1241.508,661.043-1215.094,706.795c36.64,63.462,1195.572-749.245,1221.112-705.009     c31.158,53.968-1259.87,638.829-1219.083,709.475c27.057,46.864,1199.135-734.872,1217.56-702.958     c16.047,27.794-1244.678,640.396-1208.223,703.539c2.732,4.731,1197.542-705.226,1203.528-694.857     c31.866,55.194-1217.239,629.278-1182.694,689.112c10.341,17.911,1142.885-737.532,1176.524-679.267     c16.111,27.905-1200.231,623.475-1167.715,679.795c38.728,67.078,1171.366-687.017,1176.012-678.971     c0.389,0.674-1183.046,669.102-1174.399,684.078c0,0,1134.758-732.867,1168.409-674.581     c6.47,11.206-1158.537,675.154-1158.537,675.154c24.043,41.644,1129.467-701.442,1150.833-664.434     c29.066,50.344-1175.531,606.06-1141.627,664.782c13.437,23.274,1127.308-681.822,1140.719-658.594     c23.784,41.195-1160.879,593.574-1125.09,655.562c34.22,59.271,1094.991-711.137,1129.175-651.929     c19.295,33.419-1148.176,607.754-1121.884,653.293c34.816,60.303,1095.353-680.017,1115.971-644.306     c36.868,63.857-1109.481,634.56-1104.398,643.364c14.023,24.289,1110.128-640.933,1110.128-640.933     c13.684,23.701-1118.899,620.268-1105.285,643.848c12.96,22.447,1072.558-659.297,1089.903-629.256     c4.638,8.034-1069.201,620.351-1068.076,622.3c18.022,31.215,1051.412-667.652,1077.661-622.188     c18.726,32.434-1092.494,581.794-1068.822,622.794c20.767,35.97,1030.912-655.501,1057.025-610.273     c32.531,56.346-1073.381,573.113-1050.797,612.231c13.295,23.027,1031.851-636.682,1049.58-605.975     c19.177,33.216-1046.648,608.898-1046.145,609.77c12.986,22.491,1047.081-604.533,1047.081-604.533     c5.425,9.397-1044.37,586.847-1034.722,603.557c13.142,22.762,1037.082-598.76,1037.082-598.76L407.731,1418.605     c17.115,29.644,1007.393-612.196,1020.634-589.263c12.667,21.94-1023.957,545.813-1001.597,584.542     c24.753,42.873,995.308-574.641,995.308-574.641c4.062,7.035-1019.171,548.355-999.535,582.365     c22.02,38.141,1006.432-581.064,1006.432-581.064c18.529,32.093-1031.279,522.625-997.425,581.261     c33.825,58.587,972.049-589.77,984.415-568.352c1.171,2.029-993.294,510.842-963.821,561.892     c1.497,2.593,945.604-588.082,963.85-556.479c15.656,27.116-968.032,558.749-965.666,562.847     c20.654,35.773,942.13-602.906,967.664-558.681c20.678,35.816-964.729,538.196-954.13,556.553     c14.124,24.464,919.901-600.639,950.01-548.489c20.99,36.355-975.835,514.837-952.137,555.883     c30.286,52.458,946.873-558.722,952.089-549.689c17.471,30.261-953.566,545.181-948.58,553.817     c27.204,47.119,908.057-597.466,939.753-542.567c10.323,17.88-941.41,531.763-933.592,545.305     c21.587,37.39,927.887-551.016,934.512-539.541c16.076,27.844-954.077,483.025-922.393,537.904     c24.594,42.597,917.884-529.941,917.884-529.941c15.843,27.441-932.196,504.137-914.827,534.221     c12.718,22.028,897.759-544.06,908.904-524.756c31.328,54.261-906.108,529.013-906.108,529.013s885.615-549.163,902.006-520.773     c0.217,0.377-909.229,524.015-906.149,529.35c14.906,25.818,896.652-523.989,899.383-519.259     c15.032,26.036-904.734,486.899-887.073,517.49c0,0,885.261-512.646,885.928-511.491     c15.602,27.023-897.973,499.262-887.315,517.722c19.883,34.438,869.628-511.137,873.55-504.344     c7.479,12.954-876.243,511.449-876.243,511.449c14.729,25.512,850.289-534.901,869.336-501.911l-853.45,498.115     c13.682,23.698,828.925-533.141,852.551-492.22c0,0-871.108,476.892-857.468,500.518     c7.211,12.49,847.019-509.292,855.794-494.093c15.622,27.058-869.561,487.994-860.877,503.036     c12.293,21.291,849.706-497.729,852.803-492.366c0,0-860.623,458.402-841.414,491.672     c18.839,32.63,811.93-522.268,835.096-482.143c0,0-835.707,473.923-829.644,484.424     c21.837,37.823,809.738-492.892,820.732-473.85c6.802,11.781-839.981,437.382-817.027,477.14     c6.379,11.048,797.674-483.2,807.487-466.203c5.808,10.061-824.32,456.122-813.28,475.245l812.229-468.941     c22.949,39.749-823.447,453.48-811.371,474.396c15.23,26.379,783.13-505.746,806.342-465.542     c22.379,38.762-811.144,440.306-796.347,465.934c10.564,18.297,774.605-475.424,786.818-454.27     c13.035,22.578-818.114,419.035-792.762,462.947c10.776,18.665,780.312-450.514,780.312-450.514     c9.781,16.941-795.254,409.764-771.315,451.228c0.141,0.245,765.943-442.217,765.943-442.217     c11.461,19.851-766.363,441.321-763.507,446.267c19.772,34.247,737.027-481.991,761.479-439.64     c20.822,36.065-782.372,413.255-763.09,446.652c0,0,743.455-454.438,754.369-435.535     c5.844,10.123-784.161,411.328-763.747,446.686c0,0,757.907-448.84,762.784-440.394c0.016,0.027-748.241,438.16-748.241,438.16     c3.518,6.094,724.777-476.009,749.701-432.84c4.768,8.258-759.007,421.061-749.334,437.816     c3.517,6.091,725.254-441.274,735.017-424.362c10.849,18.792-758.795,404.922-741.751,434.444     c4.29,7.431,739.643-431.959,741.776-428.265c13.57,23.504-759.869,409.391-744.597,435.843     c24.509,42.452,736.923-446.699,746.119-430.772c15.087,26.131-749.91,403.614-734.887,429.635     c7.807,13.521,716.916-447.208,731.334-422.236c11.463,19.855-735.33,430.223-735.33,430.223     c1.791,3.102,730.885-435.245,736.631-425.294c15.192,26.313-746.842,402.626-732.222,427.948     c0,0,713.041-428.797,720.455-415.955c10.371,17.964-737.191,398.927-722.957,423.58     c25.087,43.453,716.499-450.174,732.305-422.797c15.151,26.242-743.504,412.497-733.931,429.078     c17.558,30.411,702.819-462.601,727.427-419.98c6.605,11.441-747.471,392.586-728.165,426.025     c10.028,17.368,694.788-455.44,718.303-414.712c15.071,26.104-720.593,411.932-716.39,419.211     c10.655,18.456,704.661-435.253,716.966-413.941c24.357,42.188-745.945,380.978-722.117,422.25     c13.688,23.709,729.413-421.127,729.413-421.127l-718.215,419.935c4.271,7.397,719.969-415.674,719.969-415.674     c13.435,23.27-735.264,397.132-720.956,421.914c22.357,38.724,704.385-438.562,718.192-414.648     c24.664,42.719-717.744,409.521-712.996,417.744c11.473,19.872,693.367-438.75,710.01-409.924     c22.106,38.289-719.922,419.97-719.186,421.244c20.995,36.365,711.145-418.731,714.674-412.617     c16.619,28.785-717.221,420.33-717.221,420.33c1.207,2.09,719.001-435.839,727.975-420.297     c11.548,20.002-720.999,405.635-713.993,417.77c21.065,36.486,682.819-448.451,706.3-407.782     c20.149,34.898-717.356,404.042-710.585,415.77c13.567,23.499,704.568-437.033,717.667-414.345     c16.912,29.292-721.237,378.319-702.269,411.174c0,0,681.823-415.007,691.071-398.99c0,0-700.921,372.839-684.701,400.932     c19.03,32.961,687.677-408.302,692.558-399.848c12.476,21.609-699.153,376.611-684.981,401.157     c19.588,33.927,673.374-415.914,685.127-395.558c11.912,20.632-667.827,380.057-663.193,388.082     c1.963,3.4,658.905-380.419,658.905-380.419c20.864,36.138-660.75,374.597-655.262,384.104     c0.915,1.585,639.098-403.117,653.878-377.517c15.487,26.824-664.309,343.471-644.656,377.51     c13.988,24.228,645.814-376.52,647.398-373.776c10.271,17.79-637.117,373.822-637.117,373.822     c16.349,28.317,623.511-403.8,642.484-370.938c4.096,7.095-651.856,346.231-636.091,373.537c0,0,617.157-378.324,626.687-361.818     c16.765,29.038-617.474,336.133-606.401,355.312c0,0,593.78-387.571,613.158-354.007     c17.866,30.945-612.405,334.613-601.489,353.519c19.98,34.606,598.302-348.22,599.51-346.127     c0,0-601.412,324.081-588.767,345.984c6.155,10.661,590.963-346.479,593.252-342.514     c18.443,31.944-605.155,330.665-594.349,349.381c14.176,24.554,587.295-346.877,590.674-341.026     c6.426,11.131-584.176,331.389-578.951,340.439c17.913,31.026,569.11-358.708,582.158-336.109     c3.657,6.334-566.076,332.208-566.076,332.208l565.751-326.637c8.339,14.443-555.456,325.306-555.194,325.76     c17.885,30.978,552.944-327.734,556.621-321.365c0,0-561.898,294.122-546.344,321.061     c0.615,1.065,525.005-341.685,541.707-312.755c11.112,19.246-545.572,289.536-532.203,312.692     c16.055,27.808,527.619-333.144,539.97-311.752c11.231,19.453-547.992,297.141-537.304,315.653     c2.255,3.906,533.832-313.004,535.909-309.407c6.938,12.017-543.906,280.356-526.968,309.695     c0,0,519.379-330.712,532.736-307.576c17.69,30.641-522.064,307.161-522.064,307.161s509.723-312.426,517.576-298.823     c10.622,18.397-513.943,274.851-501.755,295.96c12.948,22.426,499.899-288.617,499.899-288.617     c1.178,2.041-495.974,281.233-491.401,289.153c4.278,7.409,483.689-305.036,494.852-285.703     c0.053,0.093-495.017,267.421-484.761,285.184c4.985,8.634,481.513-287.006,485.412-280.253     c11.928,20.66-472.83,278.705-472.83,278.705c15.568,26.965,474.841-279.439,477.132-275.472     c8.106,14.041-472.806,270.409-469.134,276.769c1.023,1.772,456.352-299.691,472.034-272.529     c5.299,9.179-476.503,259.855-467.176,276.01c8.102,14.033,455.137-276.473,461.069-266.198     c0.207,0.358-463.927,238.855-449.112,264.516c10.298,17.836,451.535-263.239,452.637-261.33     c6.974,12.08-459.495,247.298-449.193,265.141c4.311,7.467,446.3-264.846,449.407-259.465     c2.873,4.976-436.682,252.332-434.365,256.345c12.403,21.483,436.348-258.485,439.189-253.566     c11.758,20.366-438.554,236.755-429.151,253.041c3.42,5.923,416.05-268.786,428.425-247.351     c8.181,14.169-415.554,239.913-413.302,243.813c12.59,21.806,402.062-257.231,412.931-238.406     c10.9,18.88-411.965,235.119-408.49,241.138c9.44,16.35,406.299-234.577,406.299-234.577s-399.411,231.243-397.161,235.139     c7.84,13.579,397.477-241.695,402.765-232.537c10.128,17.543-398.335,235.695-398.335,235.695     c7.216,12.498,398.959-232.616,399.945-230.908c2.488,4.308-393.861,203.393-380.764,226.078l375.857-217.001     c5.882,10.188-372.488,199.045-362.944,215.576c5.167,8.95,352.833-219.835,359.816-207.74c0,0-360.589,190.127-350.453,207.684     c5.903,10.224,344.685-221.046,354.229-204.514c10.676,18.491-354.845,196.656-349,206.78     c12.026,20.829,353.876-204.311,353.876-204.311c5.334,9.239-354.679,210.533-354.679,210.533     c4.965,8.6,354.164-206.98,355.248-205.103c1.89,3.273-340.517,190.889-335.717,199.203     c7.192,12.457,341.165-196.972,341.165-196.972c2.111,3.657-338.974,182.306-330.522,196.945     c0.871,1.508,321.8-189.954,323.602-186.832c8.718,15.1-319.776,189.819-319.776,189.819s318.772-193.498,322.866-186.407     c6.993,12.113-311.746,179.296-308.796,184.405c4.036,6.99,291.86-190.354,301.321-173.968     c0.73,1.264-298.753,162.428-291.871,174.348c3.921,6.791,297.013-174.806,298.453-172.312     c3.054,5.289-290.923,173.691-290.851,173.815c9.831,17.028,289.031-188.592,298.436-172.302     c6.255,10.833-288.345,152.747-279.691,167.737c0,0,266.174-157.037,267.63-154.516c2.98,5.162-271.83,151.936-267.012,160.281     c6.731,11.659,259.635-169.626,268.176-154.832c1.539,2.665-257.765,151.201-256.362,153.63     c1.522,2.636,256.976-168.476,265.684-153.393c4.412,7.642-249.226,146.5-247.642,149.243     c3.696,6.402,244.786-144.828,246.302-142.202c3.619,6.268-242.009,130.609-235.81,141.347     c2.727,4.723,235.328-144.896,239.238-138.124c2.424,4.198-246.968,134.185-240.722,145.004     c2.921,5.06,237.953-147.99,242.547-140.034c0.368,0.637-230.28,138.228-230.28,138.228     c7.335,12.704,215.75-141.988,223.296-128.92c7.068,12.241-208.715,125.042-208.43,125.534     c5.071,8.783,204.215-133.044,210.771-121.689c2.849,4.935-205.839,112.268-200.634,121.284     c4.157,7.2,202.447-130.432,208.314-120.27c4.119,7.135-203.757,120.679-202.438,122.964c0,0,190.341-120.468,194.92-112.537     c5.885,10.192-182.831,107.034-180.738,110.658c3.384,5.861,189.762-114.186,191.766-110.716     c5.57,9.648-193.498,107.952-189.166,115.455c0,0,181.054-112.998,184.72-106.648c1.849,3.203-175.409,100.209-172.653,104.982     c0.72,1.246,179.683-103.74,179.683-103.74c0.577,1-166.612,99.774-165.855,101.086c0,0,154.407-99.288,158.798-91.682     c1.003,1.736-150.142,90.319-149.194,91.961c1.2,2.078,157.291-96.366,159.696-92.201c0,0-151.931,85.518-148.276,91.849     c4.286,7.423,135.695-86.956,139.424-80.497c2.058,3.564-142.57,81.596-140,86.047c0.102,0.177,146.612-91.482,149.572-86.355     c2.559,4.433-129.142,77.485-127.984,79.49c2.993,5.183,121.187-75.527,123.594-71.357     c2.906,5.034-124.441,70.436-121.405,75.695c0.819,1.419,116.045-72.416,118.391-68.353     c0.639,1.107-101.639,63.953-101.639,63.953l106.576-61.532c1.964,3.402-101.592,57.942-99.019,62.398     c3.344,5.793,97.783-61.726,100.066-57.773c0.558,0.966-100.364,62.786-99.911,63.571c0,0,100.473-63.473,102.839-59.374     c1.735,3.005-86.872,55.403-86.872,55.403c2.637,4.568,88.156-53.536,89.299-51.557c1.999,3.463-74.441,44.936-72.572,48.173     c1.459,2.526,68.617-39.616,68.617-39.616s-68.25,41.373-66.754,43.965c0.644,1.115,62.696-39.508,64.129-37.025     c0.358,0.619-47.683,31.036-46.701,32.737c1.367,2.368,43.676-26.812,44.367-25.615c0.283,0.49-47.296,30.579-46.2,32.478     c1.625,2.815,52.153-30.389,52.273-30.18c1.298,2.248-36.45,26.312-36.245,26.668c1.158,2.005,46.384-29.038,47.362-27.344     c0.393,0.681-33.106,23.201-32.35,24.511c0.217,0.375,25.194-15.085,25.428-14.681c0,0-24.808,18.771-24.476,19.346     c0.162,0.28,21.046-13.149,21.478-12.401c0.149,0.258-0.286,6.19-0.246,6.259c0.352,0.609,12.86-7.425,12.86-7.425     c0.084,0.146-9.64,11.275-9.492,11.532c0,0,3.464-2.084,3.5-2.021"
   stroke-linejoin="round"
   stroke-linecap="round"
   stroke-width="2.9825"
   stroke="#000000"
   fill="none" />
		</g>
		<g
   id="g26">
			<path
   id="path18"
   d="M1274.366,813.219     c0.702,1.216,116.37-74.137,119.38-68.924c1.953,3.383-113.215,65.894-111.154,69.466c3.145,5.447,107.52-62.077,107.52-62.077     c3.292,5.703-106.143,58.974-102.653,65.02c1.955,3.387,105.046-67.329,107.939-62.319c0.394,0.682-95.919,60.441-95.752,60.73     c1.359,2.353,91.122-58.599,93.716-54.107c1.599,2.769-70.508,46.028-70.508,46.028c0.695,1.204,54.261-35.397,56.023-32.345"
   stroke-linejoin="round"
   stroke-linecap="round"
   stroke-width="2.9825"
   stroke="#FFFFFF"
   fill="none" />
			<path
   id="path20"
   d="M989.801,952.842     c4.649,8.053,410.863-266.103,423.373-244.435c12.632,21.879-412.45,222.312-402.919,238.821     c0,0,389.115-237.677,394.753-227.911c10.589,18.34-389.455,228.961-388.778,230.134c10.314,17.865,384.111-237.4,390.88-225.675     c0,0-399.175,219.355-392.104,231.603c0.738,1.278,393.288-234.4,396.464-228.899c7.22,12.506-379.485,223.822-379.075,224.532     c3.105,5.378,365.161-210.826,365.161-210.826c5.441,9.424-374.535,205.488-367.228,218.143     c3.546,6.143,239.237-151.167,244.885-141.384c0,0-240.362,137.935-237.355,143.143c6.143,10.64,241.914-143.604,243.618-140.653     c6.133,10.622-234.803,133.585-231.24,139.757c2.313,4.007,226.626-136.912,229.254-132.36     c3.307,5.728-220.643,127.77-218.46,131.552c2.802,4.853,203.264-133.691,210.338-121.438     c3.614,6.259-198.563,113.707-195.441,119.115c0.558,0.966,202.749-124.015,205.761-118.796c0,0-204.265,120.121-202.543,123.105     c5.428,9.402,186.973-107.949,186.973-107.949c4.227,7.322-169.263,103.162-169.263,103.162     c4.887,8.465,161.95-107.849,168.162-97.089c5.475,9.483-166.983,100.682-166.447,101.609     c2.585,4.477,157.743-96.011,159.881-92.307c1.643,2.845-144.616,89.307-144.616,89.307s142.787-87.931,145.165-83.811     c1.003,1.737-127.778,77.216-126.587,79.279c0.66,1.143,130.346-77.189,131.183-75.739     c0.765,1.324-123.954,70.972-121.282,75.599c0,0,116.931-73.18,119.386-68.928c1.932,3.347-103.108,63.503-102.421,64.693     c0.514,0.89,92.477-57.607,94.302-54.445c0,0-85.614,54.95-85.54,55.079c0.016,0.028,70.969-43.923,72.246-41.711"
   stroke-linejoin="round"
   stroke-linecap="round"
   stroke-width="2.9825"
   stroke="#FFFFFF"
   fill="none" />
			<path
   id="path22"
   d="M544.141,134.366     c0.484,0.839,22.266-12.855,22.266-12.855"
   stroke-linejoin="round"
   stroke-linecap="round"
   stroke-width="2.9825"
   stroke="#FFFFFF"
   fill="none" />
			<path
   id="path24"
   d="M465.854,169.472     c0.544,0.942,18.183-10.643,18.246-10.534c0.922,1.597-48.601,29.857-46.908,32.789c1.491,2.583,63.47-37.988,64.052-36.98     c1.638,2.837-87.238,51.878-85.506,54.878c0,0,101.529-65.576,104.542-60.357c1.729,2.996-112.474,68.227-111.337,70.196     c2.484,4.302,200.923-116.498,201.137-116.127c2.818,4.881-217.586,126.884-215.867,129.861     c0.266,0.46,223.909-134.736,226.274-130.64c2.052,3.554-244.936,134.58-239.338,144.277     c3.353,5.807,250.478-149.8,252.724-145.91c6.267,10.855-290.247,155.624-282.586,168.894     c1.794,3.108,297.236-171.609,297.236-171.609c0.578,1.001-310.815,181.842-309.374,184.337     c3.626,6.28,325.003-188.148,325.223-187.767c0,0-331.655,186.891-327.036,194.893c6.81,11.796,317.409-200.242,324.764-187.503     c10.141,17.564-325.055,193.978-325.055,193.978c0.769,1.332,330.863-212.124,340-196.299     c3.443,5.964-365.7,192.814-355.049,211.263c12.192,21.117,357.157-218.993,362.694-209.402     c2.296,3.977-367.498,200.564-360.073,213.425c12.549,21.736,374.88-216.437,374.88-216.437     c8.686,15.044-389.827,216.098-383.456,227.133c4.922,8.525,404.751-236.857,406.125-234.477     c13.103,22.695-403.056,238.1-403.056,238.1c9.103,15.766,401.327-262.124,414.498-239.311     c7.761,13.442-425.484,242.478-421.419,249.517c2.218,3.841,439.877-253.963,439.877-253.963     c0.318,0.551-457.806,234.907-442.615,261.219c0,0,448.775-283.629,459.396-265.233     c14.157,24.521-459.972,271.277-459.972,271.277c0.722,1.25,457.257-281.941,465.027-268.484     c10.294,17.829-478.71,282.45-478.71,282.45S782.22,78.783,785.234,84.003c6.056,10.489-490.017,266.285-480.411,282.924     c14.471,25.065,482.185-288.763,486.677-280.983c0,0-512.172,278.186-501.914,295.954     C297.29,395.24,798.968,87.807,798.968,87.807c11.862,20.546-518.546,282.219-508.697,299.277     c16.489,28.56,512.2-298.871,513.565-296.507c2.549,4.414-503.749,290.833-501.481,294.761     c16.397,28.4,507.181-316.031,517.231-298.624c11.477,19.878-517.084,303.494-516.817,303.956     c11.395,19.736,537.813-310.506,537.813-310.506c2.945,5.1-549.841,322.698-549.766,322.828     c7.382,12.785,560.725-323.734,560.725-323.734c17.919,31.037-567.889,315.529-559.88,329.401     C310.548,441.374,855.93,81.412,856.566,82.512c14.087,24.399-573.103,297.632-556.306,326.724     c6.844,11.854,564.266-325.779,564.266-325.779S293.05,407.164,298.157,416.01C313.96,443.381,870.751,60.32,881.621,79.147     c12.172,21.082-590.532,326.557-581.767,341.737C310.641,439.569,878.622,50.085,894.49,77.57     c20.776,35.984-609.795,340.745-602.258,353.801c10.632,18.415,580.611-382.766,601.201-347.103     c2.789,4.831-607.132,347.679-603.462,354.036C304.123,462.815,889.969,47.253,909.3,80.734     c10.133,17.551-617.047,362.518-617.047,362.518c8.648,14.979,592.655-391.177,613.876-354.421     c5.769,9.992-630.322,329.845-612.972,359.895c18.03,31.229,628.416-364.068,628.958-363.129     c5.942,10.293-641.76,330.243-622.012,364.448l615.797-355.53c12.152,21.049-633.763,330.108-615.937,360.983     c20.319,35.193,607.595-386.167,622.911-359.638c0,0-636.224,347.64-625.445,366.309c0,0,633.497-387.684,642.995-371.233     c16.4,28.405-651.037,355.682-639.837,375.082C319.147,498.167,936.24,99.023,936.24,99.023     c9.648,16.71-639.712,375.558-639.712,375.558c1.393,2.413,630.391-410.603,650.59-375.618     c13.789,23.883-650.437,373.563-647.1,379.342c0,0,630.203-400.935,646.262-373.12c4.467,7.737-666.735,348.86-648.711,380.078     c22.838,39.557,646.289-415.198,664.503-383.651c0.555,0.961-666.837,364.048-655.192,384.218     c8.625,14.939,658.873-403.663,668.946-386.216c21.166,36.66-687.358,352.907-665.756,390.322     c22.415,38.824,651.04-420.187,670.226-386.955C997.05,132,295.935,457.654,316.134,492.64     c20.258,35.088,664.616-406.981,674.69-389.533c19.337,33.492-694.722,377.093-681.953,399.209     c11.452,19.835,665.586-429.694,685.252-395.631c0,0-687.043,379.909-677.461,396.505     c11.994,20.774,687.261-406.5,691.465-399.218c17.434,30.196-689.046,397.838-686.597,402.079     c16.713,28.947,686.948-396.61,686.948-396.61s-693.464,384.681-684.2,400.726c0,0,678.447-435.315,697.332-402.605     c7.294,12.633-715.723,367.581-693.41,406.229c19.905,34.476,680.272-446.166,703.4-406.108     c17.137,29.683-713.591,402.397-706.714,414.308c8.6,14.896,692.593-450.004,714.302-412.403     c7.13,12.349-710.762,401.735-704.461,412.648c4.694,8.13,700.411-419.98,707.165-408.282l-716.069,419     c15.099,26.153,700.504-449.984,720.226-415.823c12.882,22.313-733.056,377.785-711.041,415.915     c19.816,34.322,701.071-439.745,716.218-413.509c9.465,16.394-717.592,409.348-712.744,417.745     c9.684,16.772,708.929-440.677,722.515-417.144c0,0-751.484,383.356-727.208,425.405     c9.893,17.135,719.052-454.238,735.98-424.918c9.896,17.14-728.442,418.088-725,424.051c0,0,701.07-460.701,725.292-418.747     c13.095,22.681-725.743,424.756-725.743,424.756s724.133-445.498,736.006-424.933c0,0-756.711,401.482-738.956,432.235     c21.23,36.771,727.054-462.965,745.76-430.565c18.899,32.734-734.428,429.927-734.428,429.927     c11.889,20.592,734.752-451.369,746.513-430.999c6.65,11.518-766.376,398.358-744.849,435.644     c2.331,4.037,733.061-445.585,742.74-428.821c0,0-760.84,416.182-748.301,437.901c0.453,0.784,752.341-449.912,759.074-438.251     c6.835,11.839-759.305,427.939-752.511,439.705c25.167,43.591,752.862-441.124,755.659-436.28     c10.067,17.437-782.797,412.898-763.51,446.304c0,0,759.727-447.178,763.429-440.766     c8.062,13.963-776.064,408.349-756.601,442.06c26.346,45.632,759.386-452.558,765.503-441.964     c9.533,16.512-781.931,402.037-757.839,443.764c0,0,765.147-453.122,770.068-444.599     c25.484,44.139-773.291,430.19-763.717,446.772c0,0,757.347-439.03,758.116-437.699     c16.835,29.159-755.479,442.432-755.479,442.432s773.765-447.215,773.974-446.854c25.91,44.877-788.764,439.632-779.284,456.051     c21.432,37.121,759.627-472.643,774.381-447.089c1.593,2.759-770.585,442.996-767.406,448.502     c0,0,782.575-456.495,784.599-452.989L384.876,601.767c16.87,29.22,740.306-487.028,766.119-442.319     c11.73,20.318-779.39,416.194-762.514,445.424c5.774,10.002,774.573-458.584,779.503-450.046     c0,0-788.501,426.511-773.345,452.761c15.788,27.345,766.683-461.362,774.788-447.324     c2.587,4.481-775.454,448.813-773.28,452.578c0,0,760.987-479.613,778.419-449.42c22.392,38.783-783.164,440.115-775.355,453.641     c5.293,9.168,757.31-474.485,773.441-446.546c0.484,0.839-775.95,426.842-764.073,447.413     c0.716,1.24,762.414-462.147,771.926-445.672c3.066,5.31-789.891,422.81-773.237,451.655     c8.129,14.079,752.413-489.401,776.227-448.155c18.572,32.167-774.66,420.438-760.39,445.154     c3.04,5.265,771.485-448.352,772.756-446.151c16.669,28.872-780.943,426.269-768.037,448.624     c10.247,17.749,746.861-456.174,757.675-437.444c0,0-770.411,416.417-755.61,442.054c3.02,5.232,756.213-446.567,760.529-439.092     c26.074,45.162-759.764,429.639-753.559,440.387c10.057,17.419,740.516-476.181,761.58-439.698     c25.938,44.925-766.399,436.05-760.995,445.41c0,0,756.632-461.451,767.288-442.994c2.052,3.554-761.982,445.231-761.982,445.231     c5.63,9.752,771.504-445.428,771.504-445.428c19.612,33.968-757.32,436.781-754.735,441.258     c11.532,19.973,733.03-468.778,752.76-434.606c2.552,4.42-750.104,438.918-750.104,438.918s757.281-441.705,759.225-438.339     c0,0-775.828,398.83-752.196,439.762c0,0,749.868-439.474,752.699-434.571c5.453,9.446-755.124,433.348-751.727,439.232     c17.262,29.898,739.941-456.661,752.696-434.569c2.285,3.958-774.45,394.159-749.134,438.008     c8.265,14.316,744.369-451.484,753.776-435.193c6.053,10.483-752.962,395.125-733.435,428.947     c11.474,19.873,726.226-429.97,730.852-421.958c2.829,4.9-731.768,427.951-731.768,427.951     c9.122,15.799,713.838-446.667,728.791-420.768c18.242,31.596-732.844,428.942-732.844,428.942     c6.187,10.716,721.67-474.502,746.718-431.118c5.142,8.907-750.849,427.83-745.751,436.661     c25.38,43.96,722.836-464.41,743.223-429.1c8.196,14.195-748.494,409.356-736.161,430.717     c2.085,3.611,740.641-444.217,747.832-431.761c22.278,38.587-737.713,428.032-736.257,430.554     c0.515,0.893,713.82-463.287,735.974-424.915c18.434,31.929-739.685,424.922-736.408,430.599l740.476-427.514     c0,0-749.68,400.943-733.16,429.557c17.563,30.42,724.369-422.144,726.07-419.197c0,0-741.149,414.336-732.765,428.857     c3.071,5.319,745.531-433.858,747.015-431.289c22.658,39.246-752.677,425.63-746.492,436.341     c18.28,31.662,721.362-452.442,736.935-425.469c1.903,3.297-749.337,414.535-738.802,432.783     c4.38,7.587,738.584-454.576,750.775-433.46c12.512,21.671-773.559,401.154-751.372,439.583l756.897-436.995     c8.06,13.96-764.136,435.703-759.21,444.233c18.068,31.294,740.388-478.798,762.617-440.297c0,0-771.162,416.64-756.408,442.195     c4.455,7.716,752.995-438.865,754.78-435.773c2.652,4.593-761.571,412.65-747.299,437.372     c6.812,11.798,757.121-437.124,757.121-437.124c16.452,28.496-777.917,412.778-759.684,444.358     c17.017,29.474,740.203-468.669,758.092-437.685c24.011,41.589-755.945,426.751-749.174,438.478     c9.293,16.096,749.249-432.579,749.249-432.579c13.003,22.522-756.104,442.682-756.104,442.682     c12.008,20.799,758.471-444.23,761.211-439.485c23.679,41.014-761.597,445.989-761.597,445.989     c24.271,42.039,766.234-472.053,779.08-449.802c16.716,28.952-771.88,451.308-771.88,451.308     c24.818,42.986,762.838-469.226,775.31-447.625c7.446,12.897-774.596,452.286-774.541,452.381     c23.654,40.97,772.86-448.681,773.929-446.828c10.857,18.805-772.152,430.468-763.249,445.888     c0.148,0.256,764.977-445.342,766.571-442.58c0,0-777.973,427.897-766.095,448.471c9.219,15.968,751.606-452.895,759.814-438.679     c3.15,5.456-769.047,403.034-748.665,438.337c19.199,33.254,758.777-439.23,759.275-438.368     c13.526,23.427-764.086,423.74-753.963,441.273c19.379,33.566,760.09-439.424,760.344-438.985     c5.327,9.227-777.113,405.152-755.893,441.906c2.377,4.118,744.187-440.019,748.674-432.247     c7.558,13.091-754.827,417.605-744.303,435.833c13.307,23.048,738.797-475.655,760.063-438.822     c23.117,40.039-776.853,412.988-759.183,443.593c5.214,9.032,742.578-456.798,754.733-435.745     c11.15,19.313-741.769,434.251-741.769,434.251c8.158,14.131,741.853-431.427,743.203-429.089     c22.474,38.927-747.622,437.005-747.622,437.005c21.708,37.599,735.246-451.368,746.883-431.213     C1342.108,373.761,565,759.343,570.819,769.423c13.802,23.906,741.572-457.773,754.4-435.553     c0,0-756.623,408.691-742.083,433.874c10.515,18.213,744.434-429.799,744.434-429.799c3.048,5.28-744.737,432.925-743.33,435.362     c11.214,19.424,726.964-444.503,737.699-425.91c16.581,28.719-727.504,426.261-727.504,426.261     c1.093,1.893,719.587-436.232,728.584-420.648c18.604,32.222-751.845,387.036-728.927,426.731     c0,0,723.742-433.191,730.383-421.687c10.645,18.438-747.734,381.922-723.81,423.36c21.95,38.019,712.646-454.063,731.1-422.101     c1.883,3.262-735.441,396.717-720.784,422.104c20.77,35.974,714.443-431.554,722.7-417.251     c24.419,42.294-740.541,392.646-722.985,423.054c8.401,14.551,711.072-443.95,725.54-418.891     c14.824,25.675-725.514,403.479-716.224,419.57c24.665,42.721,710.061-414.151,711.879-411.003     c7.416,12.845-707.949,398.984-701.415,410.302c11.696,20.258,686.06-451.757,710.161-410.012     c8.883,15.386-711.592,406.168-707.253,413.682c17.679,30.621,708.352-418.647,712.543-411.387     c3.48,6.027-735.169,385.459-715.741,419.109c12.443,21.552,694.197-443.015,712.479-411.35c0,0-700.335,399.125-695.526,407.454     c3.656,6.333,692.184-407.302,695.505-401.55c5.182,8.975-703.087,376.374-687.947,402.597     c14.839,25.702,678.507-423.436,692.234-399.661c2.286,3.959-710.522,363.721-687.721,403.213     c13.505,23.391,696.194-401.948,696.194-401.948c2.404,4.164-701.542,387.527-691.231,405.386     c0,0,692.058-405.729,694.729-401.102c22.502,38.975-688.656,400.702-687.508,402.691     c1.35,2.339,671.281-415.236,683.263-394.482c17.114,29.642-696.095,372.274-680.896,398.601     c14.148,24.506,695.774-405.213,697.292-402.582c13.693,23.716-699.298,384.123-688.211,403.326     c21.762,37.693,661.814-421.817,679.013-392.028c4.813,8.336-677.638,355.181-659.695,386.259l665.559-384.261     c1.316,2.28-676.869,349.053-656.235,384.792c12.486,21.627,642.513-403.163,656.459-379.007     c9.468,16.398-659.553,386.047-659.553,386.047c15.204,26.333,651.398-400.575,662.002-382.207     c14.412,24.963-664.813,341.222-643.873,377.492c0,0,651.735-382.448,654.406-377.822     c18.116,31.378-653.121,363.213-644.525,378.102c5.736,9.936,640.494-370.36,640.741-369.932     c16.662,28.86-643.84,368.048-639.984,374.727c0,0,631.842-405.704,649.556-375.022c0.864,1.496-643.541,329.655-622.723,365.713     c5.182,8.976,597.604-382.253,613.723-354.333c9.513,16.476-608.682,356.28-608.415,356.744     c15.639,27.087,609.714-355.736,611.324-352.948c1.988,3.444-604.429,354.24-604.429,354.24     c15.592,27.005,600.494-346.695,600.494-346.695c4.559,7.897-594.621,308.702-576.959,339.292     c7.527,13.037,584.466-356.97,592.922-342.324c11.735,20.326-595.132,327.73-585.535,344.353     c17.77,30.778,564.547-358.733,578.746-334.139c19.42,33.637-566.365,330.26-565.511,331.739     c6.423,11.124,567.917-333.158,570.2-329.205c0,0-581.389,320.597-572.146,336.606c5.35,9.266,564.523-349.611,574.778-331.848     c3.277,5.676-588.723,319.501-577.335,339.225c4.519,7.828,578.172-340.419,581.034-335.46     c0.66,1.143-588.522,301.05-569.062,334.755c12.132,21.012,553.695-355.328,569.133-328.589     c8.616,14.923-570.142,331.013-568.467,333.913c10.177,17.627,560.876-351.93,573.047-330.849     c17.684,30.629-579.241,340.526-579.241,340.526l585.966-338.307c9.214,15.959-601.016,315.599-585.112,343.146     c9.55,16.541,577.264-333.284,577.264-333.284c6.329,10.962-570.241,330.622-568.559,333.534     c8.178,14.164,572.155-346.013,578.944-334.253c7.752,13.427-581.977,309.428-568.082,333.496     c0.509,0.882,555.508-359.223,572.179-330.348c3.282,5.685-586.429,324.021-577.589,339.332     c9.229,15.985,566.426-356.789,579.314-334.467c10.278,17.802-589.29,326.681-580.831,341.333     c17.456,30.235,569.886-338.474,573.978-331.387c19.171,33.204-564.286,331.992-564.286,331.992     c11.421,19.781,552.059-343.83,562.927-325.006c15.176,26.285-582.779,301.755-565.117,332.346     c17.539,30.379,555.315-347.337,566.888-327.293c15.097,26.149-557.728,327.193-557.642,327.343     c15.717,27.222,555.168-336.603,562.13-324.546c10.317,17.869-576.794,295.202-557.981,327.787     c16.732,28.981,539.667-341.358,552.562-319.022c7.438,12.882-555.996,306.172-547.074,321.624     c10.52,18.22,553.186-324.366,555.344-320.628c0.422,0.73-570.271,295.797-553.113,325.516c0,0,544.479-343.83,557.242-321.724     c10.172,17.618-565.65,311.076-556.358,327.172c8.859,15.344,535.778-335.597,547.151-315.898     c8.853,15.334-565.106,290.227-546.898,321.765c3.161,5.476,538.118-332.374,547.511-316.105     c0.319,0.552-537.337,314.536-536.51,315.969c13.709,23.744,533.632-329.9,543.075-313.544     c7.658,13.264-549.414,296.704-537.928,316.597c11.069,19.172,531.336-333.42,542.877-313.43     c3.947,6.836-544.248,314.181-541.686,318.619c17.264,29.902,526.539-335.611,540.228-311.901     c14.158,24.523-551.618,298.666-540.398,318.1c18.258,31.624,516.557-334.918,532.441-307.405     c12.463,21.586-533.518,295.824-525.939,308.952c9.788,16.953,524.307-304.053,524.889-303.045     c0.469,0.812-535.695,288.198-524.194,308.118c5.048,8.743,519.286-329.49,532.138-307.23     c15.712,27.214-556.775,285.306-538.818,316.409c17.15,29.704,528.423-343.553,545.08-314.702     c4.979,8.624-557.458,285.426-539.31,316.86c16.416,28.433,530.397-324.37,538.254-310.761     c9.376,16.241-541.71,307.813-537.239,315.557c1.872,3.243,533.576-308.06,533.576-308.06     c7.969,13.802-519.164,305.292-519.07,305.455c5.301,9.182,508.646-317.188,518.831-299.547     c4.787,8.292-520.345,301.25-518.422,304.581c15.598,27.017,497.588-318.832,511.249-295.17     c3.368,5.833-509.164,297.738-508.085,299.606c8.82,15.276,498.443-312.898,509.321-294.057L897.317,932.687     c1.644,2.847,512.192-330.534,527.27-304.419c0,0-517.638,296.98-514.56,302.31c6.271,10.861,500.691-308.922,509.285-294.036     c4.458,7.721-519.531,290.5-513.1,301.639c13.336,23.099,513.305-296.357,513.305-296.357S908.857,928.85,914.762,939.079     c17.048,29.528,498.632-294.152,501.345-289.452c12.786,22.145-505.694,294.537-504.19,297.142l505.748-291.994     c6.769,11.723-500.075,294.995-500.075,294.995c2.967,5.14,509.816-294.342,509.816-294.342     c8.722,15.106-521.681,292.139-515.443,302.944c9.264,16.046,489.518-314.448,503.298-290.579     c11.6,20.093-505.606,259.591-489.069,288.234c7.862,13.618,477.862-307.701,491.635-283.845     c1.212,2.099-509.257,264.11-493.75,290.968c13.145,22.767,498.434-292.001,500.266-288.828     c6.246,10.818-510.521,285.905-504.15,296.941c12.487,21.628,492.846-309.72,503.747-290.838     c0,0-505.062,272.693-494.199,291.509c0,0,478.538-302.838,490.036-282.923c13.023,22.556-495.843,291.924-495.843,291.924     c9.552,16.545,484.139-281.137,484.84-279.923c10.809,18.722-497.621,258.718-482.524,284.865     c4.371,7.57,478.553-313.661,494.734-285.635c2.915,5.048-484.921,280.155-482.301,284.693     c0.112,0.194,61.444-37.601,62.365-36.006c1.317,2.281-66.526,42.049-65.486,43.852c0.498,0.863,54.535-33.832,55.551-32.072     c0.276,0.478-48.088,33.334-47.851,33.744c0.625,1.082,54.469-35.119,56.059-32.366c1.106,1.916-63.98,42.369-63.98,42.369     c0.013,0.022,58.652-35.763,59.475-34.338c0.651,1.127-56.169,35.299-55.096,37.158c0,0,60.66-37.953,61.929-35.755     c0.614,1.064-63.848,41.553-63.566,42.041c1.714,2.968,59.341-35.6,59.92-34.595c0,0-43.227,29.683-42.838,30.356     c1.108,1.919,43.417-25.236,43.49-25.109c1.257,2.177-43.59,27.959-42.198,30.37c1.552,2.689,50.495-31.273,51.413-29.684     c1.593,2.759-58.07,35.441-56.646,37.909c0.15,0.259,58.375-34.019,58.512-33.782c0.226,0.391-56.393,36.642-55.485,38.213     c0.729,1.263,55.962-32.896,56.216-32.456c1.95,3.377-55.518,33.561-53.756,36.613c0,0,48.739-30.23,49.644-28.662     c0.741,1.284-40.082,29.443-40.082,29.443c0.576,0.998,53.838-32.767,54.567-31.504c0.192,0.333-47.76,29.318-46.192,32.032     c0.8,1.386,45.305-26.157,45.305-26.157s-47.772,29.023-46.115,31.893c1.285,2.226,44.793-28.999,46.151-26.646     c1.424,2.467-46.116,29.104-44.665,31.617c0.052,0.09,46.8-27.084,46.828-27.036c0.905,1.568-39.15,28.045-38.856,28.554     c0.849,1.471,31.68-20.201,32.507-18.768c0.069,0.119-17.387,15.056-16.947,15.819c0.297,0.515,15.869-9.304,15.931-9.198"
   stroke-linejoin="round"
   stroke-linecap="round"
   stroke-width="2.9825"
   stroke="#FFFFFF"
   fill="none" />
		</g>
	</g>
</g>
</svg>